<?xml version="1.0" encoding="UTF-8"?>
<svg width="65px" height="38px" viewBox="0 0 65 38" version="1.1" xmlns="http://www.w3.org/2000/svg" xmlns:xlink="http://www.w3.org/1999/xlink">
    <!-- Generator: Sketch 52.6 (67491) - http://www.bohemiancoding.com/sketch -->
    <title>Group 2</title>
    <desc>Created with Sketch.</desc>
    <g id="Page-1" stroke="none" stroke-width="1" fill="none" fill-rule="evenodd">
        <g id="Desktop" transform="translate(-259.000000, -213.000000)" fill="#242582">
            <g id="Group-2" transform="translate(258.000000, 192.000000)">
                <text id="RH" font-family="ChalkboardSE-Regular, Chalkboard SE" font-size="50" font-weight="normal" letter-spacing="3.83">
                    <tspan x="0" y="57">R</tspan>
                    <tspan x="35.0454696" y="57" font-size="41">H</tspan>
                </text>
                <g id="Group" transform="translate(27.000000, 22.000000)">
                    <rect id="Rectangle" transform="translate(12.137495, 7.915064) rotate(60.000000) translate(-12.137495, -7.915064) " x="9.63749537" y="-3.58493649" width="5" height="23" rx="2.5"></rect>
                    <rect id="Rectangle" transform="translate(28.209292, 7.915064) rotate(-60.000000) translate(-28.209292, -7.915064) " x="25.7092921" y="-3.58493649" width="5" height="23" rx="2.5"></rect>
                </g>
                <path d="M39.15,23 C40.4478692,23 41.5,24.0521308 41.5,25.35 L41.5,29.65 C41.5,30.9478692 40.4478692,32 39.15,32 C37.8521308,32 36.8,30.9478692 36.8,29.65 L36.8,25.35 C36.8,24.0521308 37.8521308,23 39.15,23 Z" id="Rectangle"></path>
            </g>
        </g>
    </g>
</svg>